<?xml version="1.0" encoding="UTF-8" standalone="no"?>
<!DOCTYPE svg  PUBLIC '-//W3C//DTD SVG 1.1//EN'  'http://www.w3.org/Graphics/SVG/1.1/DTD/svg11.dtd'>
<!-- Creator: CorelDRAW X8 -->
<svg style="shape-rendering:geometricPrecision;text-rendering:geometricPrecision;image-rendering:optimizeQuality" xmlns="http://www.w3.org/2000/svg" fill-rule="evenodd" xml:space="preserve" height="4.2332mm" width="18.288mm" version="1.1" clip-rule="evenodd" xmlns:xlink="http://www.w3.org/1999/xlink" viewBox="0 0 1829 423">
 <defs>
  <style type="text/css">
   <![CDATA[
    .fil0 {fill:#1C5A33}
   ]]>
  </style>
 </defs>
 <g id="Слой_x0020_1">
  <path class="fil0" d="m489 179h-60v153h-57v-199h117v46zm81 153h-46v-201h70c23 0 41 6 53 17 14 12 21 29 21 51 0 23-7 40-22 51-13 10-31 15-55 15h-21v67zm0-160v53h20c23 0 34-9 34-27s-11-26-34-26h-20zm336 160h-56v-22c-7 9-15 16-26 21s-22 7-34 7c-29 0-53-10-71-31-18-20-27-45-27-75 0-29 9-54 27-74 19-21 42-31 72-31 26 0 46 9 59 27v-21h56v199zm-55-98c0-16-5-30-15-40-10-11-23-17-39-17-15 0-27 6-36 17-10 10-15 23-15 38s5 28 15 40c10 11 22 16 37 16 14 0 27-5 37-16 11-11 16-24 16-38zm152 98h-46v-201h70c23 0 41 6 53 17 14 12 21 29 21 51 0 23-7 40-22 51-13 10-31 15-55 15h-21v67zm0-160v53h20c23 0 34-9 34-27s-11-26-34-26h-20z"/>
  <polygon points="1325 409 1270 409 1270 287 1187 287 1187 409 1133 409 1133 129 1187 129 1187 227 1270 227 1270 129 1325 129" class="fil0"/>
  <path class="fil0" d="m329 412h-69l2-62h-99l-37 62h-68l218-341h51l2 341zm-64-125l7-122-71 122h64z"/>
  <path class="fil0" d="m1546 401h-57v-118l-78 118h-50v-198h56v114l79-114h50v198zm227 0h-66l-60-96v96h-55v-198h55v91l62-91h62l-69 97 71 101z"/>
 </g>
</svg>
